# xmcd CD database file
#
# Track frame offsets:
#	150
#	18970
#	35041
#	53985
#	79621
#	85986
#	108310
#	128982
#	144249
#	152768
#	177038
#	192416
#	197143
#	214832
#	238350
#	282257
#
# Disc length: 4440 seconds
#
# Revision: 0
# Processed by: cddbd v1.5.1PL0 Copyright (c) Steve Scherf et al.
# Submitted via: CDex 1.50
#
DISCID=e3115610
DTITLE=ZZ - Definitive Energy Flow
DYEAR=2003
DGENRE=Unknown
TTITLE0=Rhythmist
TTITLE1=Wish You Joy
TTITLE2=喜びの歌−pNM Version−（feat．NAOYA MATSUOKA）
TTITLE3=Walk into the light（feat．KEN from DA PUMP）
TTITLE4=−party time−
TTITLE5=Step Forward
TTITLE6=Circle
TTITLE7=What is Life？
TTITLE8=−chonmage time−
TTITLE9=I call this love
TTITLE10=Any Angels，Any Devils
TTITLE11=−funky time−
TTITLE12=4
TTITLE13=Everybody Yo！
TTITLE14=再見（feat．KEN from DA PUMP）
TTITLE15=CCCD
EXTD=YEAR: 2003
EXTT0=
EXTT1=
EXTT2=
EXTT3=
EXTT4=
EXTT5=
EXTT6=
EXTT7=
EXTT8=
EXTT9=
EXTT10=
EXTT11=
EXTT12=
EXTT13=
EXTT14=
EXTT15=
PLAYORDER=
